<svg xmlns="http://www.w3.org/2000/svg" viewBox="0 0 22.8 18.48"><defs><style>.cls-1{fill:#e54e65;}.cls-2{fill:#8f5ebf;}.cls-3{fill:#fff;stroke:#fff;stroke-miterlimit:10;stroke-width:0.5px;}</style></defs><g id="Capa_2" data-name="Capa 2"><g id="Capa_7" data-name="Capa 7"><path class="cls-1" d="M11.81,4.77S10.63.65,6.89.73.66,2.57.65,7.39c0,4.15,8.59,10.16,8.59,10.16S20.68,14.93,22,9.36,17.6,2.69,17.6,2.69,13,2.64,11.81,4.77Z"/><path class="cls-2" d="M21.67,4.47A6.41,6.41,0,0,0,16,1.86,6.34,6.34,0,0,0,12.88,3l-.1.06a4.94,4.94,0,0,0-.44.39L12,3.74l-.2-.42a3.38,3.38,0,0,0-.27-.5A6.41,6.41,0,0,0,5.71,0a6.34,6.34,0,0,0-3,1.06l-.08,0A6.64,6.64,0,0,0,.73,9.48c.08.15.15.28.22.39v0a2.34,2.34,0,0,0,.15.25h0a19.85,19.85,0,0,0,3.56,4.52,41.51,41.51,0,0,0,4.38,3.57l.32.23.38-.11a40.36,40.36,0,0,0,5.34-1.82,18.62,18.62,0,0,0,2-1c.5-.29,1-.59,1.47-.93S19.51,14,20,13.56l0,0,.07,0h0l0-.05a.27.27,0,0,0,.08-.07h0l.36-.31,0,0a6.8,6.8,0,0,0,2-3.62V9.33c0-.12,0-.23.05-.34A6.19,6.19,0,0,0,21.67,4.47Zm-2.28,7.92,0,0a1.18,1.18,0,0,1-.15.11c-.48.4-.94.74-1.39,1.06a17.56,17.56,0,0,1-2,1.21c-.39.2-.79.39-1.22.57a39.11,39.11,0,0,1-5,1.71,38.51,38.51,0,0,1-4.07-3.32,19.08,19.08,0,0,1-3.37-4.3c0-.06-.07-.12-.12-.21v0a2.75,2.75,0,0,1-.2-.36A5.35,5.35,0,0,1,3.37,2.19l.06,0a5,5,0,0,1,7,1.39l.16.23a4.8,4.8,0,0,1,1,2.27l0,.34.16-.3a5.85,5.85,0,0,1,1.83-2l.1-.08a5,5,0,0,1,2.45-.88,5,5,0,0,1,4,1.46,6.1,6.1,0,0,1,.51.61,5.36,5.36,0,0,1-.88,6.87A4.31,4.31,0,0,1,19.39,12.39Z"/><path class="cls-3" d="M19.72,9.77a12.12,12.12,0,0,1-1.86,2,12.72,12.72,0,0,1-2.38,1.59"/><path class="cls-3" d="M15.51,13.71a.4.4,0,0,1-.39-.22.39.39,0,0,1,.17-.54,12.34,12.34,0,0,0,2.31-1.53,11.93,11.93,0,0,0,1.79-1.9A.41.41,0,0,1,20,9.45.4.4,0,0,1,20,10a12.92,12.92,0,0,1-4.38,3.66Z"/><path class="cls-3" d="M4.87,3.09A5.11,5.11,0,0,0,3.47,4.4a3.32,3.32,0,0,0-.63,1.73"/><path class="cls-3" d="M2.8,6.53a.39.39,0,0,1-.36-.43,3.71,3.71,0,0,1,.7-1.94A5.29,5.29,0,0,1,4.7,2.73a.39.39,0,0,1,.53.19A.4.4,0,0,1,5,3.46,4.79,4.79,0,0,0,3.79,4.64a2.91,2.91,0,0,0-.55,1.51.4.4,0,0,1-.43.38Z"/><circle class="cls-3" cx="13.47" cy="14.32" r="0.4"/></g></g></svg>