<svg xmlns="http://www.w3.org/2000/svg" viewBox="0 0 115.21 19.22"><defs><style>.cls-1{fill:#b079de;}.cls-2{fill:#8f5ebf;}.cls-3{fill:#e54e65;}.cls-4{fill:#fff;stroke:#fff;stroke-miterlimit:10;stroke-width:0.5px;}</style></defs><g id="Capa_2" data-name="Capa 2"><g id="Capa_7" data-name="Capa 7"><path class="cls-1" d="M1.58,1.65v6.6H10.8V9.93H1.58v8.6H0V0H11.8V1.65Z"/><path class="cls-1" d="M12.17,11.55a7.35,7.35,0,0,1,7.24-7.29,7.3,7.3,0,0,1,0,14.6A7.38,7.38,0,0,1,12.17,11.55Zm12.68,0A5.66,5.66,0,0,0,19.41,5.8a5.67,5.67,0,0,0-5.48,5.75,5.67,5.67,0,0,0,5.48,5.77A5.67,5.67,0,0,0,24.85,11.55Z"/><path class="cls-1" d="M35.86,4.26V5.8c-3.15,0-5.39,2.05-5.39,4.94v7.79H28.8V4.59h1.67V7.45A5.62,5.62,0,0,1,35.86,4.26Z"/><path class="cls-2" d="M49.71,11,42.23,0h2.62l6,9,6-9h2.53L51.92,11v7.55H49.71Z"/><path class="cls-2" d="M56.72,11.55A7.22,7.22,0,1,1,64,18.86,7.38,7.38,0,0,1,56.72,11.55Zm12.3,0a5.1,5.1,0,1,0-10.17,0,5.1,5.1,0,1,0,10.17,0Z"/><path class="cls-2" d="M85,4.59V18.53H83V16.29a5.27,5.27,0,0,1-4.58,2.57,5.11,5.11,0,0,1-5.24-5.4V4.59h2v8.6c0,2.27,1.43,3.86,3.48,3.86C81,17.05,83,15.4,83,13.46V4.59Z"/><path class="cls-3" d="M104.22,5.51s-1.18-4.12-4.92-4-6.23,1.84-6.24,6.66c0,4.15,8.59,10.16,8.59,10.16s11.44-2.62,12.78-8.19S110,3.43,110,3.43,105.4,3.38,104.22,5.51Z"/><path class="cls-2" d="M114.08,5.21a6.43,6.43,0,0,0-5.72-2.61,6.34,6.34,0,0,0-3.07,1.11l-.1.07a3.6,3.6,0,0,0-.44.38l-.32.32-.2-.41a3.05,3.05,0,0,0-.27-.51,6.36,6.36,0,0,0-8.84-1.74L95,1.87a6.64,6.64,0,0,0-1.9,8.35,4.19,4.19,0,0,0,.22.39v0c0,.1.11.19.14.25h0a19.85,19.85,0,0,0,3.56,4.52A41.51,41.51,0,0,0,101.47,19l.32.23.38-.1a42.13,42.13,0,0,0,5.34-1.83,18.62,18.62,0,0,0,2-1c.5-.28,1-.59,1.47-.93s.94-.68,1.42-1.07l0,0,.07,0h0l0-.05.08-.06h0a4.12,4.12,0,0,0,.35-.31l0,0a6.87,6.87,0,0,0,2-3.63v-.06c0-.12,0-.23,0-.34A6.25,6.25,0,0,0,114.08,5.21Zm-2.28,7.92,0,0-.15.12c-.48.39-.94.73-1.39,1.05a17.56,17.56,0,0,1-2,1.21c-.39.21-.79.39-1.22.57a39.4,39.4,0,0,1-5,1.72A40.14,40.14,0,0,1,98,14.49a19.08,19.08,0,0,1-3.37-4.3L94.48,10v0a2.75,2.75,0,0,1-.2-.36,5.35,5.35,0,0,1,1.51-6.67l.06-.05a5,5,0,0,1,7,1.39l.16.23a4.84,4.84,0,0,1,1,2.27l0,.34.16-.3a5.85,5.85,0,0,1,1.83-2l.1-.08a5.07,5.07,0,0,1,6.46.58A6.1,6.1,0,0,1,113,6a5.36,5.36,0,0,1-.88,6.87A4.31,4.31,0,0,1,111.8,13.13Z"/><path class="cls-4" d="M112.13,10.51a12.56,12.56,0,0,1-1.86,2,13.12,13.12,0,0,1-2.38,1.58"/><path class="cls-4" d="M107.92,14.45a.4.4,0,0,1-.39-.22.39.39,0,0,1,.17-.54A12.34,12.34,0,0,0,110,12.16a11.93,11.93,0,0,0,1.79-1.9.41.41,0,0,1,.57-.07.4.4,0,0,1,.08.56,12.92,12.92,0,0,1-4.38,3.66A.42.42,0,0,1,107.92,14.45Z"/><path class="cls-4" d="M97.28,3.83a5,5,0,0,0-1.4,1.32,3.27,3.27,0,0,0-.63,1.72"/><path class="cls-4" d="M95.21,7.27a.39.39,0,0,1-.36-.43,3.65,3.65,0,0,1,.7-1.93,5.21,5.21,0,0,1,1.56-1.44.39.39,0,0,1,.53.19.4.4,0,0,1-.19.54A4.79,4.79,0,0,0,96.2,5.38a2.91,2.91,0,0,0-.55,1.52.4.4,0,0,1-.43.37Z"/><circle class="cls-4" cx="105.88" cy="15.06" r="0.4"/></g></g></svg>