<svg xmlns="http://www.w3.org/2000/svg" viewBox="0 0 115.76 18.86"><defs><style>.cls-1{fill:#b079de;}.cls-2{fill:#8f5ebf;}.cls-3{fill:#e54e65;}.cls-4{fill:#fff;stroke:#fff;stroke-miterlimit:10;stroke-width:0.5px;}</style></defs><g id="Capa_2" data-name="Capa 2"><g id="Capa_7" data-name="Capa 7"><path class="cls-1" d="M1.58,1.65v6.6H10.8V9.93H1.58v8.6H0V0H11.8V1.65Z"/><path class="cls-1" d="M12.17,11.55a7.35,7.35,0,0,1,7.24-7.29,7.3,7.3,0,0,1,0,14.6A7.38,7.38,0,0,1,12.17,11.55Zm12.68,0A5.66,5.66,0,0,0,19.41,5.8a5.67,5.67,0,0,0-5.48,5.75,5.67,5.67,0,0,0,5.48,5.77A5.67,5.67,0,0,0,24.85,11.55Z"/><path class="cls-1" d="M35.86,4.26V5.8c-3.15,0-5.39,2.05-5.39,4.94v7.79H28.8V4.59h1.67V7.45A5.62,5.62,0,0,1,35.86,4.26Z"/><path class="cls-2" d="M49.71,11,42.23,0h2.62l6,9,6-9h2.53L51.92,11v7.55H49.71Z"/><path class="cls-2" d="M56.72,11.55A7.22,7.22,0,1,1,64,18.86,7.38,7.38,0,0,1,56.72,11.55Zm12.3,0a5.1,5.1,0,1,0-10.17,0,5.1,5.1,0,1,0,10.17,0Z"/><path class="cls-2" d="M85,4.59V18.53H83V16.29a5.27,5.27,0,0,1-4.58,2.57,5.11,5.11,0,0,1-5.24-5.4V4.59h2v8.6c0,2.27,1.43,3.86,3.48,3.86C81,17.05,83,15.4,83,13.46V4.59Z"/><path class="cls-3" d="M104.78,5S103.6.83,99.86.91s-6.23,1.85-6.25,6.66c0,4.15,8.6,10.16,8.6,10.16S113.65,15.12,115,9.55s-4.42-6.68-4.42-6.68S106,2.82,104.78,5Z"/><path class="cls-2" d="M114.63,4.65a6.43,6.43,0,0,0-5.72-2.6,6.28,6.28,0,0,0-3.07,1.11l-.09.06a3.86,3.86,0,0,0-.44.38l-.33.33-.19-.42a4,4,0,0,0-.28-.51A6.37,6.37,0,0,0,98.67.21a6.29,6.29,0,0,0-3,1.05l-.08.06a6.63,6.63,0,0,0-1.9,8.35c.07.14.14.28.21.39l0,0a1.53,1.53,0,0,0,.14.24h0a20,20,0,0,0,3.57,4.53A42.83,42.83,0,0,0,102,18.44l.32.23.38-.11a41.67,41.67,0,0,0,5.35-1.83,20.49,20.49,0,0,0,2-1,17.31,17.31,0,0,0,1.47-.93c.47-.33.94-.68,1.43-1.08h0l.07-.06h0l0-.05a.71.71,0,0,0,.09-.07h0a3.79,3.79,0,0,0,.36-.3l0,0a6.67,6.67,0,0,0,2-3.63V9.52a2.45,2.45,0,0,0,.06-.34A6.23,6.23,0,0,0,114.63,4.65Zm-2.27,7.92,0,0-.14.11c-.48.39-.94.74-1.39,1a17.78,17.78,0,0,1-2,1.22c-.39.2-.79.39-1.22.57a38.58,38.58,0,0,1-5,1.71,39.94,39.94,0,0,1-4.06-3.33,18.29,18.29,0,0,1-3.37-4.29L95,9.43v0c-.06-.1-.11-.2-.19-.36a5.38,5.38,0,0,1,1.5-6.68l.07,0a5,5,0,0,1,2.38-.84,5,5,0,0,1,4.59,2.22l.16.23a4.88,4.88,0,0,1,1,2.28l0,.33.16-.29a5.61,5.61,0,0,1,1.83-2l.1-.08a5.11,5.11,0,0,1,2.44-.88,5,5,0,0,1,4,1.47,4.4,4.4,0,0,1,.52.61,5.38,5.38,0,0,1-.88,6.87A4.49,4.49,0,0,1,112.36,12.57Z"/><path class="cls-4" d="M112.68,10a12.44,12.44,0,0,1-1.85,2,12.33,12.33,0,0,1-2.39,1.58"/><path class="cls-4" d="M108.48,13.89a.39.39,0,0,1-.4-.22.4.4,0,0,1,.18-.54,12.18,12.18,0,0,0,2.31-1.53,12.32,12.32,0,0,0,1.79-1.89.4.4,0,1,1,.64.49,12.59,12.59,0,0,1-1.91,2,12.28,12.28,0,0,1-2.47,1.63A.23.23,0,0,1,108.48,13.89Z"/><path class="cls-4" d="M97.83,3.28a5.09,5.09,0,0,0-1.4,1.31,3.3,3.3,0,0,0-.63,1.72"/><path class="cls-4" d="M95.76,6.71a.41.41,0,0,1-.36-.43,3.62,3.62,0,0,1,.71-1.93,5.48,5.48,0,0,1,1.55-1.44.41.41,0,0,1,.34.74,4.79,4.79,0,0,0-1.24,1.18,2.8,2.8,0,0,0-.55,1.51.42.42,0,0,1-.43.38Z"/><circle class="cls-4" cx="106.44" cy="14.51" r="0.4"/></g></g></svg>