<svg xmlns="http://www.w3.org/2000/svg" viewBox="0 0 68.98 75.63"><defs><style>.cls-1{fill:#b079de;}.cls-2{fill:#e54e65;}.cls-3{fill:#8f5ebf;}.cls-4{fill:#fff;stroke:#fff;stroke-miterlimit:10;stroke-width:0.5px;}</style></defs><g id="Capa_2" data-name="Capa 2"><g id="Capa_7" data-name="Capa 7"><g id="logo"><path class="cls-1" d="M41.33,7.47l-6.11,2.84A9.55,9.55,0,0,1,33,14.64l9.55-4.45A3.71,3.71,0,0,1,47.52,12L65.63,50.81a3.71,3.71,0,0,1-1.8,4.93L28.36,72.28a3.72,3.72,0,0,1-4.93-1.79L5.33,31.66a3.71,3.71,0,0,1,1.79-4.93l20.51-9.56a15.15,15.15,0,0,0,2.67-4.56L5.85,24a6.71,6.71,0,0,0-3.24,8.92l18.1,38.82A6.72,6.72,0,0,0,29.63,75L65.1,58.46a6.72,6.72,0,0,0,3.25-8.92L50.24,10.72A6.71,6.71,0,0,0,41.33,7.47Z"/><path class="cls-1" d="M19.06,30.21a51.69,51.69,0,0,0-1.77-9.07,35.9,35.9,0,0,1-4.59,1.37c-4.68.8-8.15.19-10.34-1.82C.59,19.07-.21,16.58.05,13.49A7.36,7.36,0,0,1,7.43,6.85c3.65,0,7.72,2.3,10.72,8.28C16,8.77,17.58,2.52,22,.59S31,1.88,32.39,5C34.9,10.35,31.8,15,27.63,17.17c-.34.17-2.12.83-4.4,1.74a26.48,26.48,0,0,0,6.31,7.47L27.7,28.75A30.17,30.17,0,0,1,20.4,20l-.29.11A53.9,53.9,0,0,1,22,29.88ZM8,9.87a4.78,4.78,0,0,0-.53,0A4.38,4.38,0,0,0,3,13.75c-.18,2.15.27,3.74,1.35,4.73,1.45,1.33,4.14,1.7,7.8,1.07a33.39,33.39,0,0,0,4.12-1.23C14,12.55,10.76,10.11,8,9.87ZM25.22,3a4.18,4.18,0,0,0-2,.33C20.49,4.53,19.06,9.5,21.31,15c.16.41.34.81.53,1.22,2.26-.9,4.09-1.67,4.44-1.84C29,13,31.46,10.06,29.67,6.23A5.87,5.87,0,0,0,25.22,3Z"/><path class="cls-2" d="M45.86,43.08s-1.59-5.55-6.63-5.44-8.39,2.48-8.4,9c0,5.59,11.57,13.69,11.57,13.69s15.4-3.53,17.21-11-6-9-6-9S47.44,40.21,45.86,43.08Z"/><path class="cls-3" d="M57.09,54.75l.11-.1h0v0a4.84,4.84,0,0,0,.48-.41l0,0a9.1,9.1,0,0,0,2.73-4.88v-.08c0-.16,0-.31.07-.45a8.38,8.38,0,0,0-1.44-6.1,8.6,8.6,0,0,0-11.84-2l-.12.09a4.68,4.68,0,0,0-.59.52l-.44.44-.26-.57a6.11,6.11,0,0,0-.37-.68,8.6,8.6,0,0,0-11.9-2.35l-.11.08a8.92,8.92,0,0,0-2.56,11.24c.1.2.2.39.29.53l0,0c.07.14.14.26.19.34h0a26.31,26.31,0,0,0,4.8,6.09,53.74,53.74,0,0,0,5.89,4.81l.43.32.51-.15a55.18,55.18,0,0,0,7.2-2.46A25.92,25.92,0,0,0,53,57.61a23.35,23.35,0,0,0,2-1.25c.63-.44,1.26-.92,1.92-1.45l0,0,.1-.07m-.93-1.48,0,0-.2.15c-.65.53-1.26,1-1.87,1.42a24.14,24.14,0,0,1-2.71,1.64c-.53.27-1.07.52-1.65.77a52.75,52.75,0,0,1-6.69,2.3,53.54,53.54,0,0,1-5.47-4.48,25,25,0,0,1-4.55-5.79,3.08,3.08,0,0,1-.16-.28v0c-.09-.14-.16-.28-.27-.49a7.23,7.23,0,0,1,2-9l.09-.06a6.64,6.64,0,0,1,3.2-1.13,6.77,6.77,0,0,1,6.18,3l.22.32a6.41,6.41,0,0,1,1.29,3.06l.05.45.22-.4a7.8,7.8,0,0,1,2.46-2.65l.14-.1a6.78,6.78,0,0,1,8.69.79,7,7,0,0,1,.7.82,7.22,7.22,0,0,1-1.19,9.25Z"/><path class="cls-4" d="M56.51,49.81a16.67,16.67,0,0,1-5.71,4.76"/><path class="cls-4" d="M50.84,55.12a.57.57,0,0,1-.53-.3.54.54,0,0,1,.24-.73A16.14,16.14,0,0,0,53.66,52a16.62,16.62,0,0,0,2.41-2.55.55.55,0,0,1,.87.66A17.1,17.1,0,0,1,51,55.06.66.66,0,0,1,50.84,55.12Z"/><path class="cls-4" d="M36.51,40.82a6.87,6.87,0,0,0-1.89,1.77,4.32,4.32,0,0,0-.84,2.32"/><path class="cls-4" d="M33.72,45.45a.55.55,0,0,1-.49-.58,5.07,5.07,0,0,1,1-2.61,7.39,7.39,0,0,1,2.1-1.93.54.54,0,0,1,.46,1,6.56,6.56,0,0,0-1.68,1.6,3.83,3.83,0,0,0-.74,2,.55.55,0,0,1-.58.51Z"/><circle class="cls-4" cx="48.1" cy="55.94" r="0.54"/></g></g></g></svg>